<?xml version="1.0" encoding="utf-8"?>
<!-- Generator: Adobe Illustrator 25.3.0, SVG Export Plug-In . SVG Version: 6.00 Build 0)  -->
<svg version="1.1" id="Layer_1" xmlns="http://www.w3.org/2000/svg" xmlns:xlink="http://www.w3.org/1999/xlink" x="0px" y="0px"
	 viewBox="0 0 100 100" style="enable-background:new 0 0 100 100;" xml:space="preserve">
<style type="text/css">
	.st0{fill:#A37F67;}
	.st1{fill:none;stroke:#B2A08A;stroke-width:0.5;stroke-miterlimit:10;}
	.st2{fill:#FFFFFF;}
	.st3{fill:#606060;}
</style>
<text transform="matrix(1 0 0 1 16.1025 128.6123)" style="font-family:'BebasNeue-Regular'; font-size:13.5484px;">MEYNARD olicia</text>
<text transform="matrix(1 0 0 1 37.156 133.1876)" style="font-family:'ArialMT'; font-size:3.5963px;">designer</text>
<g>
	<path class="st0" d="M-71.6,127.8c-2.1-4.4-3.7-8.9-4.8-13.5L-83,87.4v37.5l-1.2,0.1V87.4l-6.6,26.9c-1.2,4.8-2.8,9.2-4.8,13.5
		l-2.8,5.8l5.9,5.4l8.9,6.9l8.9-6.9l5.9-5.4L-71.6,127.8z M-83.5,138.5L-83.5,138.5L-83.5,138.5L-83.5,138.5z M-82.4,135.4l-2.3,3.3
		l-2.8,0.7c0,0,0.2-1-0.1-1.7c-0.1-0.2-0.1-0.3-0.2-0.5c-0.1-0.8-0.3-0.8-0.5-0.8l0.8-0.1l0.3,1l-0.1-1l0.5-0.1l0.2,0.7l-0.1-0.8
		l0.3-0.1l0.2,0.5c0,0.1,0.1-0.6,0.2-0.7c0-0.1,1.7-1.2,2.5-1.5l1.2-0.3l-1-1.6l1.1-0.7l1.4,0.7L-82.4,135.4z M-77.7,130.3
		L-77.7,130.3c-0.1,0.1,0,0.7,0,0.7l-1,1.2l-2.8-0.8l2-1.3l-2.2-2.3c0,0,1.3,2.2,0.8,2.6c-0.3,0.3-2.9,1.7-2.9,1.7l0.8,1.2l-1.1,0.8
		l-1,0.7l-1.5,0.7l0.1-1.2l-0.3,0.2v1h-0.5l-0.3-1.2v1.1l-0.6,0.1l-0.1-0.9l-0.1,1h-0.5v-0.5c0,0,0,0,0-0.2s-0.1-0.8-0.1-0.8h0.7
		l-1-0.9c0,0,0.1-0.1,0.1-0.3c0.1-0.3,0.3-0.8,0.5-1c0.1,0.2,0.2,0.2,0.2,0.2s0.1-0.1,0.2-0.3c0.1-0.3,0-0.5,0-0.5s-0.1-0.2-0.2-0.5
		c-0.1-0.3,0.8-2,1.3-3c0.3-0.5,0.8-1,0.8-1s0,0,1.6-0.8c1.6-0.8,4.1,0.6,4.1,0.6l1.5,1C-79.2,127.6-77.9,129.3-77.7,130.3
		C-77.7,130.1-77.7,130.3-77.7,130.3C-77.7,130.4-77.7,130.5-77.7,130.3z M-88.7,131.9c0.1,0.2,0.1,0.3,0.1,0.3s0.2-0.2,0.3-0.4"/>
	<polygon class="st0" points="-42.2,154.8 -54.1,154.8 -54.1,97.2 -42.2,88 	"/>
	<path class="st0" d="M-87.4,130.8l-0.2,0.6c0,0,0.1,0.4,0.1,0.6s0.1,0.6,0.1,0.6l0.3-0.1l1.5-0.4c0.8-0.2,1.1-1.6,1.1-1.6
		s-1.6-0.2-1.9-0.1C-86.8,130.5-87.4,130.8-87.4,130.8z"/>
	<path class="st0" d="M-52.1,115.5l-15.1,16.9c0,0-4.1-8.6-5.9-13.4c-2-5.1-4.6-18.2-4.6-18.2l9.6,22.1l14-25.8"/>
	<rect x="-89.5" y="139.6" class="st0" width="11.9" height="9.2"/>
	<rect x="-89.5" y="152.5" class="st0" width="11.9" height="2.3"/>
	<rect x="-90.2" y="149.3" class="st0" width="13.2" height="2.8"/>
	<path class="st0" d="M-66.3,72.4c-25.8,0-46.7,20.9-46.7,46.7s20.9,46.7,46.7,46.7s46.7-20.9,46.7-46.7S-40.5,72.4-66.3,72.4z
		 M-66.3,165.6c-24.5,0-44.3-19.9-44.3-44.3c0-24.6,19.8-44.4,44.3-44.4S-22,96.8-22,121.2C-22,145.7-41.8,165.6-66.3,165.6z"/>
	<circle class="st1" cx="-66.3" cy="121.1" r="42.4"/>
	<polyline class="st0" points="-86,135.3 -85.9,134.5 -84.3,133.6 -83.5,133.8 	"/>
	<polyline class="st0" points="-85.7,135.6 -85.3,136.1 -83.6,135 -83.2,134.1 -85.2,134.8 	"/>
	<polygon class="st0" points="-89.3,133.5 -89.1,134 -89.3,134 	"/>
	<path class="st0" d="M-84.3,133.9v-1.1c0,0-0.8-0.1-0.7-0.1l0.6,0.2L-84.3,133.9"/>
	<circle class="st0" cx="-83.6" cy="87.4" r="2.5"/>
</g>
<polygon class="st0" points="277.9,85.7 266,85.7 266,28.1 277.9,18.9 "/>
<path class="st0" d="M232.7,61.7l-0.2,0.6c0,0,0.1,0.4,0.1,0.6s0.1,0.6,0.1,0.6l0.3-0.1l1.5-0.4c0.8-0.2,1.1-1.6,1.1-1.6
	s-1.6-0.2-1.9-0.1C233.3,61.4,232.7,61.7,232.7,61.7z"/>
<path class="st0" d="M268,46.4l-15.1,16.9c0,0-4.1-8.6-5.9-13.4c-2-5.1-4.6-18.2-4.6-18.2l9.6,22.1L266,28"/>
<rect x="230.6" y="83.4" class="st0" width="11.9" height="2.3"/>
<rect x="229.9" y="80.2" class="st0" width="13.2" height="2.8"/>
<path class="st0" d="M253.8,3.3c-25.8,0-46.7,20.9-46.7,46.7s20.9,46.7,46.7,46.7s46.7-20.9,46.7-46.7S279.6,3.3,253.8,3.3z
	 M253.8,96.5c-24.5,0-44.3-19.9-44.3-44.3c0-24.6,19.8-44.4,44.3-44.4s44.3,19.9,44.3,44.3C298.1,76.6,278.3,96.5,253.8,96.5z"/>
<circle class="st1" cx="253.8" cy="52" r="42.4"/>
<polygon class="st0" points="230.8,64.4 231,64.9 230.8,64.9 "/>
<circle class="st0" cx="236.5" cy="18.3" r="2.5"/>
<path class="st0" d="M251.3,64.5l-2.8-5.8c-2.1-4.4-3.7-8.9-4.8-13.5l-6.6-26.9v37.5l-1.2,0.1V18.3l-6.6,26.9
	c-1.2,4.8-2.8,9.2-4.8,13.5l-2.8,5.8l5.9,5.4l3,2.3v7.5h11.9v-7.6l2.9-2.2L251.3,64.5z"/>
<image style="overflow:visible;" width="910" height="607" xlink:href="2DC0975C.jpg"  transform="matrix(0.1074 0 0 0.1074 329.234 47.0105)">
</image>
<g>
	<path class="st2" d="M201.9,71c0,6-6.1,17.1-10.8,17.1c-4.7,0-10.8-11.2-10.8-17.1s4.8-10.8,10.8-10.8S201.9,65.1,201.9,71z"/>
	<g>
		<path class="st3" d="M200.7,73.5c0,0-4.8,0.2-6.1,1.1c-1.2,0.9-1.8,3.2-1.8,3.2l3.9,0.4L200.7,73.5z"/>
		<path class="st3" d="M181.4,73.5c0,0,4.8,0.2,6.1,1.1c1.2,0.9,1.8,3.2,1.8,3.2l-3.9,0.4L181.4,73.5z"/>
	</g>
	<polygon class="st3" points="191.1,79.1 189.9,81.5 191.1,81.2 192.3,81.5 	"/>
	<path class="st3" d="M180.4,72.4l3.9-3.4l-0.8-4l-0.1,3.7l-3.1,2.4C180.2,71.2,179.9,71.9,180.4,72.4z"/>
	<path class="st3" d="M201.8,72.4l-3.9-3.4l0.8-4l0.1,3.7l3.1,2.4C201.9,71.2,202.2,71.9,201.8,72.4z"/>
	<polygon class="st3" points="200,81 197.5,79.2 196.1,79.6 193.6,78.6 195.7,80.5 197.6,79.8 199.1,81.7 197.7,82.7 194.9,82 
		194.9,83.3 194.2,84.6 193.1,84.9 193.3,83 192.8,83.2 192.6,84.9 191.4,85 191.4,83.2 191.1,83.2 190.8,83.2 190.8,85 189.5,84.9 
		189.3,83.2 188.9,83 189,84.9 187.9,84.6 187.3,83.3 187.3,82 184.5,82.7 183.1,81.7 184.6,79.8 186.5,80.5 188.6,78.6 186.1,79.6 
		184.7,79.2 182.2,81 181.9,86.1 191.1,89.2 200.3,86.1 	"/>
</g>
<path class="st3" d="M232.7,57.8l0.1-2.1l0.5,2.3l-2.2,2c0.2,1.4,0.8,3.1,1.6,4.6l0.9-0.7l0.8,0.2l1.4-0.6l-1.2,1.1l-1.1-0.4
	l-0.6,0.8c0.2,0.3,0.4,0.6,0.6,0.9l1.6-0.4v0.8l0.4,0.7l0.6,0.1l-0.1-1.1l0.3,0.1l0.1,1l0.7,0.1v-1.1h0.2h0.2v1.1l0.7-0.1l0.1-1
	l0.3-0.1l-0.1,1.1L239,67l0.4-0.7v-0.8l1.6,0.4c0.2-0.3,0.4-0.6,0.6-0.9l-0.6-0.8l-1.1,0.4l-1.2-1.1l1.4,0.6l0.8-0.2l0.9,0.7
	c0.8-1.5,1.4-3.2,1.6-4.6l-2.2-2l0.5-2.3l0.1,2.1l1.8,1.4c0,0,0,0,0-0.1c0-3.5-2.8-6.3-6.3-6.3s-6.3,2.8-6.3,6.3c0,0,0,0,0,0.1
	L232.7,57.8z M239.3,61.2c0.7-0.5,3.5-0.6,3.5-0.6l-2.3,2.7l-2.3-0.2C238.3,63.1,238.6,61.7,239.3,61.2z M237.2,63.8l0.7,1.4
	l-0.7-0.1l-0.7,0.1L237.2,63.8z M236.2,63.1l-2.3,0.2l-2.3-2.7c0,0,2.8,0.1,3.5,0.6C235.8,61.7,236.2,63.1,236.2,63.1z"/>
<circle class="st0" cx="149" cy="106.8" r="2.5"/>
<g>
	<polygon class="st0" points="74.1,85.7 62.2,85.7 62.2,28.1 74.1,18.9 	"/>
	<path class="st0" d="M64.2,46.4L49.1,63.3c0,0-4.1-8.6-5.9-13.4c-2-5.1-4.6-18.2-4.6-18.2l9.6,22.1l14-25.8"/>
	<rect x="26.8" y="83.4" class="st0" width="11.9" height="2.3"/>
	<rect x="26.1" y="80.2" class="st0" width="13.2" height="2.8"/>
	<path class="st0" d="M50,3.3C24.2,3.3,3.3,24.2,3.3,50S24.2,96.7,50,96.7S96.7,75.8,96.7,50S75.8,3.3,50,3.3z M50,96.5
		c-24.5,0-44.3-19.9-44.3-44.3C5.7,27.6,25.5,7.8,50,7.8s44.3,19.9,44.3,44.3C94.3,76.6,74.5,96.5,50,96.5z"/>
	<circle class="st1" cx="50" cy="52" r="42.4"/>
	<g>
		<path class="st0" d="M44.7,58.7c-2.1-4.4-3.7-8.9-4.8-13.5l-6.6-26.9v34.9c3.6,0.3,6.4,3.3,6.4,7c0,0,0,0,0,0.1l-2-1.6l-0.1-2.4
			l-0.5,2.6l2.5,2.2c-0.2,1.6-0.9,3.4-1.8,5.2l-1-0.7L36,65.8l-1.6-0.6l1.3,1.3l1.2-0.5l0.7,0.9c-0.2,0.4-0.4,0.7-0.6,1l-1.8-0.5
			v0.8l-0.4,0.8L34,69.2l0.1-1.2l-0.3,0.1l-0.1,1.1l-0.8,0.1v-1.2h-0.2h-0.2v1.2l-0.8-0.1l-0.1-1.1L31.3,68l0.1,1.2l-0.7-0.2
			l-0.4-0.8v-0.8l-1.8,0.5c-0.2-0.3-0.4-0.7-0.6-1l0.7-0.9l1.2,0.5l1.3-1.3l-1.6,0.6l-0.9-0.2l-1,0.7c-0.9-1.7-1.6-3.6-1.8-5.2
			l2.5-2.2l-0.5-2.6l-0.1,2.4l-2,1.6c0,0,0,0,0-0.1c0-3.7,2.8-6.7,6.4-7V18.3l-6.6,26.9c-1.2,4.8-2.8,9.2-4.8,13.5l-2.8,5.8l5.9,5.4
			l3,2.3v7.5h11.9v-7.6l2.9-2.2l5.9-5.4L44.7,58.7z"/>
		<polygon class="st0" points="32.7,66.8 33.5,67 32.7,65.5 31.9,67 		"/>
		<path class="st0" d="M39,61.8c0,0-3.1,0.1-3.9,0.7c-0.8,0.6-1.2,2.1-1.2,2.1l2.5,0.3L39,61.8z"/>
		<path class="st0" d="M26.4,61.8l2.5,3l2.5-0.3c0,0-0.4-1.5-1.2-2.1C29.6,61.9,26.4,61.8,26.4,61.8z"/>
	</g>
</g>
</svg>
