<?xml version="1.0" encoding="utf-8"?>
<!-- Generator: Adobe Illustrator 25.3.0, SVG Export Plug-In . SVG Version: 6.00 Build 0)  -->
<svg version="1.1" id="Layer_1" xmlns="http://www.w3.org/2000/svg" xmlns:xlink="http://www.w3.org/1999/xlink" x="0px" y="0px"
	 viewBox="0 0 129.6 27.5" style="enable-background:new 0 0 129.6 27.5;" xml:space="preserve">
<style type="text/css">
	.st0{fill:#606060;}
	.st1{fill:#FFFFFF;}
	.st2{fill:#A37F67;}
</style>
<rect x="49.3" y="-13.1" class="st0" width="7.9" height="0.4"/>
<g>
	<g>
		<path class="st1" d="M170.8,64.2c-1.8-3.8-3.2-7.7-4.2-11.7l-5.7-23.4v32.5l-1,0.1V29.1l-5.7,23.4c-1,4.1-2.4,8-4.2,11.7l-2.4,5
			l5.1,4.7l7.7,6l7.7-6l5.1-4.7L170.8,64.2z M160.5,73.5L160.5,73.5L160.5,73.5L160.5,73.5z M161.5,70.7l-2,2.9l-2.4,0.6
			c0,0,0.2-0.9-0.1-1.5c-0.1-0.2-0.1-0.3-0.2-0.4c-0.1-0.7-0.3-0.7-0.4-0.7l0.7-0.1l0.3,0.8l-0.1-0.8l0.4-0.1l0.2,0.6l-0.1-0.6
			l0.3-0.1l0.2,0.4c0,0.1,0.1-0.5,0.2-0.6c0-0.1,1.5-1,2.1-1.3l1-0.3l-0.8-1.4l1-0.4l1.2,0.4L161.5,70.7z M165.6,66.3L165.6,66.3
			c-0.1,0.1,0,0.6,0,0.6l-0.8,1.1l-2.4-0.7l1.7-1.1l-1.9-2c0,0,1,1.6,0.6,1.9c-0.3,0.3-2.4,1.8-2.4,1.8l0.7,1l-1,0.7l-0.8,0.6
			l-1.3,0.6l-0.2-0.8v0.8h-0.5l-0.3-1v0.9h-0.5l-0.1-0.7l-0.1,0.8h-0.4v-0.4c0,0,0,0,0-0.2s-0.1-0.7-0.1-0.7h0.6l-0.9-0.6
			c0,0,0.1-0.1,0.1-0.3c0.1-0.3,0.3-0.7,0.4-0.9c0.1-0.3,0,0,0.3-0.2s0-0.3,0-0.3s0,0-0.2-0.5c-0.1-0.3,0.7-1.7,1.2-2.6
			c0.3-0.4,0.7-0.9,0.7-0.9s0,0,1.4-0.7S163,63,163,63l1.3,0.8c0,0,1.2,1.5,1.3,2.3C165.6,66.2,165.6,66.3,165.6,66.3
			C165.6,66.4,165.6,66.5,165.6,66.3z"/>
		<polygon class="st1" points="196.4,87.6 186,87.6 186,37.6 196.4,29.6 		"/>
		<path class="st1" d="M157.1,66.8l-0.3,0.6c0,0,0.3,0.3,0.3,0.4s0.1,0.1,0.1,0.1s0.2,0.4,0.1,0.4s-0.1,0-0.1,0l1.6-0.4
			c0.6-0.1,0.8-1.3,0.8-1.3s-1.3-0.3-1.6-0.2C157.7,66.5,157.1,66.8,157.1,66.8z"/>
		<path class="st1" d="M187.8,53.5l-13.1,14.7c0,0-3.6-7.4-5.1-11.6c-1.7-4.5-4-15.8-4-15.8l8.3,19.2L186,37.6"/>
		<g>
			<rect x="155.3" y="74.4" class="st1" width="10.3" height="8"/>
			<rect x="155.3" y="85.6" class="st1" width="10.3" height="2"/>
			<rect x="155.3" y="83" class="st1" width="10.3" height="2.1"/>
		</g>
	</g>
	<text transform="matrix(1 0 0 1 140.1344 100.9616)" class="st1" style="font-family:'BebasNeue-Regular'; font-size:13.5484px;">MEYNARD olicia</text>
	<text transform="matrix(1 0 0 1 161.1879 105.5368)" class="st1" style="font-family:'ArialMT'; font-size:3.5963px;">designer</text>
</g>
<g>
	<g>
		<path class="st1" d="M44.2,142.8c-1.8-3.7-3.2-7.7-4.2-11.7l-5.7-23.4v32.5l-1,0.1v-32.6l-5.7,23.4c-1,4.1-2.4,8-4.2,11.7l-2.4,5
			l5.1,4.7l7.7,6l7.7-6l5.1-4.7L44.2,142.8z M33.9,152.1L33.9,152.1L33.9,152.1L33.9,152.1z M34.9,149.3l-2,2.9l-2.4,0.6
			c0,0,0.2-0.9-0.1-1.5c-0.1-0.2-0.1-0.3-0.2-0.4c-0.1-0.7-0.3-0.7-0.4-0.7l0.7-0.1l0.3,0.8l-0.1-0.8l0.4-0.1l0.2,0.6l-0.1-0.6
			l0.3-0.1l0.2,0.4c0,0.1,0.1-0.5,0.2-0.6c0-0.1,1.5-1,2.1-1.3l1-0.3l-0.8-1.4l1-0.4l1.2,0.4L34.9,149.3z M39,145
			C39,144.9,39,144.9,39,145c-0.1,0.1,0,0.6,0,0.6l-0.8,1.1l-2.4-0.7l1.7-1.1l-1.9-2c0,0,1,1.6,0.6,1.9c-0.3,0.3-2.4,1.8-2.4,1.8
			l0.7,1l-1,0.7l-0.8,0.6l-1.4,0.5l-0.2-0.8v0.8h-0.5l-0.2-0.9v0.9h-0.5l-0.1-0.7l-0.1,0.7h-0.4V149c0,0,0,0,0-0.2s-0.1-0.7-0.1-0.7
			h0.6l-0.9-0.6c0,0,0.1-0.1,0.1-0.3c0.1-0.3,0.3-0.7,0.4-0.9c0.1-0.3,0,0,0.3-0.2s0-0.3,0-0.3s0,0-0.2-0.5
			c-0.1-0.3,0.7-1.7,1.2-2.6c0.3-0.4,0.7-0.9,0.7-0.9s0,0,1.4-0.7c1.4-0.7,3.6,0.5,3.6,0.5l1.3,0.8c0,0,1.2,1.5,1.3,2.3
			C39,144.8,39,144.9,39,145C39,145,39,145.1,39,145z"/>
		<polygon class="st1" points="69.7,166.2 59.4,166.2 59.4,116.2 69.7,108.2 		"/>
		<path class="st1" d="M30.5,145.4l-0.3,0.6c0,0,0.3,0.3,0.3,0.4s0.1,0.1,0.1,0.1s0.2,0.4,0.1,0.4s-0.1,0-0.1,0l1.6-0.4
			c0.6-0.1,0.8-1.3,0.8-1.3s-1.3-0.3-1.6-0.2C31.3,145.1,30.5,145.4,30.5,145.4z"/>
		<path class="st1" d="M61.2,132.1l-13.1,14.7c0,0-3.6-7.4-5.1-11.6c-1.7-4.5-4-15.8-4-15.8l8.3,19.2l12.1-22.5"/>
		<g>
			<rect x="28.7" y="153" class="st1" width="10.3" height="8"/>
			<rect x="28.7" y="164.3" class="st1" width="10.3" height="2"/>
			<rect x="28.7" y="161.6" class="st1" width="10.3" height="2.1"/>
		</g>
	</g>
	<text transform="matrix(1 0 0 1 13.4851 179.6028)" class="st1" style="font-family:'BebasNeue-Regular'; font-size:13.5484px;">MEYNARD olicia</text>
	<text transform="matrix(1 0 0 1 34.5385 184.178)" class="st1" style="font-family:'ArialMT'; font-size:3.5963px;">designer</text>
</g>
<g>
	<polygon class="st1" points="19.8,22.7 16.8,22.7 16.8,8.3 19.8,6 	"/>
	<path class="st1" d="M17.3,12.9l-3.8,4.2c0,0-1-2.1-1.5-3.3c-0.5-1.3-1.1-4.5-1.1-4.5l2.4,5.5l3.5-6.4"/>
	<rect x="8" y="22.1" class="st1" width="3" height="0.6"/>
	<rect x="7.8" y="21.3" class="st1" width="3.3" height="0.7"/>
	<path class="st1" d="M13.8,2.1C7.3,2.1,2.1,7.3,2.1,13.8s5.2,11.7,11.7,11.7s11.7-5.2,11.7-11.7S20.2,2.1,13.8,2.1z M13.8,25.4
		c-6.1,0-11.1-5-11.1-11.1c0-6.1,4.9-11.1,11.1-11.1s11.1,5,11.1,11.1C24.8,20.4,19.9,25.4,13.8,25.4z"/>
	<g>
		<path class="st1" d="M13.8,24.9c-5.9,0-10.6-4.8-10.6-10.6c0-5.9,4.8-10.6,10.6-10.6c5.9,0,10.6,4.8,10.6,10.6
			C24.4,20.1,19.6,24.9,13.8,24.9z M13.8,3.7C8,3.7,3.2,8.4,3.2,14.2C3.2,20,8,24.8,13.8,24.8c5.8,0,10.5-4.7,10.5-10.5
			C24.3,8.4,19.5,3.7,13.8,3.7z"/>
	</g>
	<g>
		<path class="st1" d="M12.4,15.9c-0.5-1.1-0.9-2.2-1.2-3.4L9.6,5.8v8.7c0.9,0.1,1.6,0.8,1.6,1.7c0,0,0,0,0,0l-0.5-0.4l0-0.6
			L10.5,16l0.6,0.5c0,0.4-0.2,0.8-0.4,1.3l-0.2-0.2l-0.2,0l-0.4-0.1l0.3,0.3l0.3-0.1l0.2,0.2c0,0.1-0.1,0.2-0.1,0.2l-0.4-0.1v0.2
			L10,18.5l-0.2,0l0-0.3l-0.1,0l0,0.3l-0.2,0v-0.3h0h0v0.3l-0.2,0l0-0.3l-0.1,0l0,0.3l-0.2,0l-0.1-0.2v-0.2l-0.4,0.1
			c0-0.1-0.1-0.2-0.1-0.2l0.2-0.2l0.3,0.1L9,17.5l-0.4,0.1l-0.2,0l-0.2,0.2c-0.2-0.4-0.4-0.9-0.4-1.3L8.3,16l-0.1-0.6l0,0.6
			l-0.5,0.4c0,0,0,0,0,0c0-0.9,0.7-1.7,1.6-1.7V5.8l-1.6,6.7c-0.3,1.2-0.7,2.3-1.2,3.4l-0.7,1.4l1.5,1.3L8,19.3v1.9h3v-1.9l0.7-0.5
			l1.5-1.3L12.4,15.9z"/>
		<polygon class="st1" points="9.4,17.9 9.6,18 9.4,17.6 9.2,18 		"/>
		<path class="st1" d="M11,16.7c0,0-0.8,0-1,0.2c-0.2,0.1-0.3,0.5-0.3,0.5l0.6,0.1L11,16.7z"/>
		<path class="st1" d="M7.9,16.7l0.6,0.7l0.6-0.1c0,0-0.1-0.4-0.3-0.5C8.7,16.7,7.9,16.7,7.9,16.7z"/>
	</g>
</g>
<g>
	<path class="st1" d="M38.5,17.7v-5.6l-2.3,5.6h-0.7l-2.3-5.6v5.6h-1.7v-8h2.4l1.9,4.8l1.9-4.8h2.4v8H38.5z"/>
	<path class="st1" d="M41.8,17.7v-8h5.7v1.5h-4v1.7h3.9v1.5h-3.9v1.8h4v1.5H41.8z"/>
	<path class="st1" d="M51,17.7v-3.3L48,9.7h1.9l2,3.2l2-3.2h1.9l-3.1,4.7v3.3H51z"/>
	<path class="st1" d="M62.1,17.7l-3.8-5.2v5.2h-1.7v-8h1.8l3.7,5v-5h1.7v8H62.1z"/>
	<path class="st1" d="M70.8,17.7l-0.5-1.4h-3.4l-0.5,1.4h-1.9l3.1-8h2.1l3.1,8H70.8z M68.6,11.4l-1.2,3.4h2.5L68.6,11.4z"/>
	<path class="st1" d="M78,17.7l-1.6-2.8h-1.2v2.8h-1.7v-8h3.7c1.7,0,2.7,1.1,2.7,2.6c0,1.4-0.9,2.2-1.8,2.4l1.8,3H78z M78.2,12.3
		c0-0.7-0.5-1.1-1.2-1.1h-1.8v2.2H77C77.7,13.4,78.2,13,78.2,12.3z"/>
	<path class="st1" d="M81.2,17.7v-8h3.2c2.5,0,4.2,1.6,4.2,4s-1.7,4-4.2,4H81.2z M86.9,13.8c0-1.4-0.9-2.5-2.5-2.5h-1.5v5h1.5
		C86,16.2,86.9,15.1,86.9,13.8z"/>
	<path class="st2" d="M89.6,13.8c0-2.4,1.6-4.1,4-4.1c2.4,0,4,1.8,4,4.1c0,2.4-1.6,4.1-4,4.1C91.2,17.9,89.6,16.1,89.6,13.8z
		 M96.6,13.8c0-1.9-1.2-3.3-2.9-3.3c-1.8,0-2.9,1.4-2.9,3.3c0,1.9,1.1,3.2,2.9,3.2C95.4,17,96.6,15.6,96.6,13.8z"/>
	<path class="st2" d="M99.2,17.7v-8h1v7.1h3.7v0.9H99.2z"/>
	<path class="st2" d="M105.3,17.7v-8h1v8H105.3z"/>
	<path class="st2" d="M107.8,13.8c0-2.5,1.8-4.1,4.1-4.1c1.4,0,2.4,0.7,3,1.6l-0.8,0.5c-0.5-0.7-1.3-1.2-2.2-1.2
		c-1.8,0-3.1,1.3-3.1,3.3c0,1.9,1.3,3.2,3.1,3.2c0.9,0,1.7-0.5,2.2-1.2l0.9,0.5c-0.7,0.9-1.6,1.6-3,1.6
		C109.6,17.9,107.8,16.2,107.8,13.8z"/>
	<path class="st2" d="M116.3,17.7v-8h1v8H116.3z"/>
	<path class="st2" d="M124.8,17.7l-0.7-1.8h-4l-0.7,1.8h-1.1l3.2-8h1.2l3.2,8H124.8z M122.1,10.8l-1.7,4.3h3.4L122.1,10.8z"/>
</g>
</svg>
